<?xml version="1.0" standalone="no"?>
<!DOCTYPE svg PUBLIC "-//W3C//DTD SVG 20010904//EN"
 "http://www.w3.org/TR/2001/REC-SVG-20010904/DTD/svg10.dtd">
<svg version="1.0" xmlns="http://www.w3.org/2000/svg"
 width="1080.000000pt" height="1080.000000pt" viewBox="0 0 1080.000000 1080.000000"
 preserveAspectRatio="xMidYMid meet">

<g transform="translate(0.000000,1080.000000) scale(0.100000,-0.100000)"
fill="#000000" stroke="none">
<path d="M4760 8833 c0 -4 46 -32 101 -62 l101 -54 -44 -22 c-35 -18 -56 -22
-92 -18 l-47 6 -118 -119 c-64 -66 -219 -225 -343 -354 -216 -224 -227 -234
-241 -215 -9 11 -13 24 -10 30 4 5 2 7 -2 2 -5 -4 -21 5 -37 20 -22 21 -31 24
-40 15 -9 -9 -3 -21 27 -52 51 -53 60 -42 9 13 -33 36 -31 35 13 -7 l52 -49
-182 -191 c-100 -105 -279 -292 -398 -416 -118 -124 -289 -304 -379 -400 -90
-96 -291 -308 -445 -470 -368 -386 -637 -676 -653 -707 -9 -17 -12 -40 -7 -69
4 -32 2 -50 -10 -68 -21 -31 -21 -105 -1 -143 13 -27 162 -172 629 -612 73
-69 258 -244 411 -390 154 -146 402 -382 553 -524 159 -150 271 -263 267 -269
-4 -7 -3 -8 4 -4 10 6 109 -86 707 -657 121 -116 303 -290 405 -387 102 -97
329 -313 505 -480 176 -168 360 -343 410 -390 49 -48 102 -94 118 -103 39 -25
108 -24 152 1 24 15 44 20 65 16 16 -4 40 -4 54 0 28 7 231 212 681 686 165
173 419 439 565 590 146 152 353 370 460 485 107 115 299 318 425 450 378 395
609 645 624 672 8 16 11 43 8 71 -4 33 0 53 14 76 22 36 24 84 6 129 -16 38
-304 316 -1241 1198 -285 269 -391 369 -978 930 -216 206 -492 469 -614 585
-446 422 -812 772 -949 907 -135 134 -138 138 -88 113 29 -15 75 -35 103 -46
27 -11 73 -29 100 -40 28 -11 50 -17 50 -14 0 3 -17 12 -37 21 -147 60 -291
129 -325 153 -21 16 -53 32 -71 36 -17 3 -41 12 -52 19 -61 37 -215 115 -215
108z m279 -156 c34 -14 85 -62 821 -766 272 -261 585 -560 695 -665 110 -105
270 -258 355 -341 85 -82 216 -206 290 -275 74 -69 241 -226 370 -350 130
-124 386 -367 570 -540 842 -795 908 -859 920 -895 12 -35 0 -97 -20 -110 -5
-3 -28 8 -52 25 -52 36 -132 54 -167 37 -40 -20 -46 -39 -25 -83 15 -31 28
-42 64 -53 39 -13 52 -12 105 1 44 12 62 13 67 5 11 -17 9 -49 -5 -74 -28 -49
-1263 -1353 -1283 -1353 -7 0 -14 -7 -14 -16 0 -8 -98 -117 -217 -242 -214
-223 -570 -595 -968 -1014 -111 -115 -212 -216 -225 -224 -14 -7 -40 -13 -59
-14 -31 0 -33 2 -27 28 16 67 18 102 7 134 -24 73 -95 104 -133 58 -32 -39
-17 -114 37 -185 l35 -45 -32 -16 c-42 -22 -99 -13 -140 21 -41 34 -547 515
-763 725 -88 85 -245 236 -349 335 -311 295 -703 671 -826 790 -63 62 -153
148 -200 191 -47 43 -175 164 -285 269 -110 105 -299 283 -420 395 -466 435
-1101 1041 -1123 1071 -26 38 -29 95 -6 127 l15 23 29 -25 c60 -50 166 -68
207 -35 31 26 6 92 -46 119 -28 15 -107 15 -144 1 -43 -17 -47 -14 -47 27 0
24 8 50 23 69 12 16 126 139 252 273 127 134 313 331 415 439 756 800 1345
1411 1356 1407 9 -3 11 0 7 11 -5 12 -3 14 7 8 9 -6 11 -4 5 4 -5 9 42 63 137
159 79 81 222 230 318 331 96 100 187 189 202 197 15 8 41 14 59 14 28 0 31
-2 24 -22 -4 -13 -10 -48 -12 -79 -6 -68 13 -111 57 -134 38 -20 46 -19 70 5
38 38 21 132 -35 199 -28 33 -26 47 9 61 31 13 60 12 95 -3z m-104 -97 c35
-50 46 -129 21 -149 -34 -29 -96 33 -96 96 0 36 21 93 34 93 7 0 26 -18 41
-40z m-2695 -2898 c28 -14 35 -23 35 -47 0 -22 -6 -32 -25 -38 -35 -13 -104 8
-143 43 l-32 29 35 15 c46 20 87 20 130 -2z m6719 -930 c56 -34 60 -47 20 -61
-85 -29 -178 3 -179 62 0 44 87 43 159 -1z m-2762 -2831 c26 -38 30 -98 10
-145 l-13 -29 -31 36 c-29 33 -53 90 -53 125 0 7 5 22 11 33 15 29 49 20 76
-20z"/>
<path d="M5124 8492 c-2 -52 -27 -97 -76 -132 -80 -59 -159 -49 -240 28 -40
38 -50 55 -55 90 -3 23 -8 41 -12 40 -16 -8 -840 -867 -922 -962 -25 -29 -28
-36 -13 -28 30 16 811 825 882 913 13 16 27 29 30 29 4 0 18 -20 31 -45 25
-48 70 -87 126 -111 102 -42 223 16 262 126 l17 48 120 -111 c219 -201 746
-707 1076 -1033 179 -176 350 -343 380 -370 l55 -49 -62 70 c-92 105 -780 785
-1088 1075 -148 140 -295 280 -325 311 -58 59 -166 149 -178 149 -4 0 -8 -17
-8 -38z"/>
<path d="M5160 8380 c-14 -33 -59 -75 -110 -103 -54 -29 -25 -32 35 -3 41 20
62 39 80 70 14 24 25 48 25 54 0 23 -18 12 -30 -18z"/>
<path d="M4710 8394 c0 -17 48 -76 82 -100 18 -13 49 -26 68 -30 l35 -6 -45
27 c-25 15 -66 48 -92 73 -27 26 -48 42 -48 36z"/>
<path d="M5200 8340 c0 -6 -21 -34 -47 -62 -47 -51 -48 -52 -13 -32 48 27 99
104 70 104 -5 0 -10 -5 -10 -10z"/>
<path d="M4711 8309 c18 -26 75 -69 93 -69 12 1 -57 64 -89 82 -19 11 -19 10
-4 -13z"/>
<path d="M5217 8264 c-11 -14 -16 -28 -13 -31 8 -9 46 27 46 44 0 20 -13 15
-33 -13z"/>
<path d="M4690 8272 c0 -9 25 -33 48 -46 25 -15 11 14 -18 34 -16 12 -30 17
-30 12z"/>
<path d="M4240 7785 c0 -20 78 -105 97 -105 8 0 -7 21 -34 46 -26 25 -37 38
-23 30 35 -23 50 -19 20 5 -44 35 -60 42 -60 24z"/>
<path d="M4340 7666 c0 -5 24 -39 53 -75 30 -36 82 -105 116 -153 35 -49 65
-88 68 -88 6 0 -2 13 -59 95 -92 135 -178 241 -178 221z"/>
<path d="M3713 7455 c-3 -9 -3 -18 0 -21 9 -9 27 6 27 22 0 19 -19 18 -27 -1z"/>
<path d="M4791 7374 c0 -11 3 -14 6 -6 3 7 2 16 -1 19 -3 4 -6 -2 -5 -13z"/>
<path d="M3625 7371 c-8 -15 3 -31 21 -31 9 0 14 7 12 17 -4 20 -24 28 -33 14z"/>
<path d="M4590 7321 c0 -5 5 -13 10 -16 6 -3 10 -2 10 4 0 5 -4 13 -10 16 -5
3 -10 2 -10 -4z"/>
<path d="M3550 7275 c0 -8 7 -15 15 -15 8 0 15 7 15 15 0 8 -7 15 -15 15 -8 0
-15 -7 -15 -15z"/>
<path d="M4620 7274 c0 -6 7 -19 16 -30 14 -18 14 -18 3 6 -14 31 -19 36 -19
24z"/>
<path d="M3480 7200 c0 -5 7 -10 15 -10 8 0 15 5 15 10 0 6 -7 10 -15 10 -8 0
-15 -4 -15 -10z"/>
<path d="M4660 7205 c0 -12 50 -104 60 -110 6 -4 -3 20 -20 54 -27 54 -40 72
-40 56z"/>
<path d="M3425 7139 c-10 -15 3 -25 16 -12 7 7 7 13 1 17 -6 3 -14 1 -17 -5z"/>
<path d="M5325 7080 c3 -5 8 -10 11 -10 2 0 4 5 4 10 0 6 -5 10 -11 10 -5 0
-7 -4 -4 -10z"/>
<path d="M3350 7060 c0 -13 5 -20 13 -17 6 2 12 10 12 17 0 7 -6 15 -12 18 -8
2 -13 -5 -13 -18z"/>
<path d="M3264 6989 c-10 -17 13 -36 27 -22 12 12 4 33 -11 33 -5 0 -12 -5
-16 -11z"/>
<path d="M5505 6910 c3 -5 11 -10 16 -10 6 0 7 5 4 10 -3 6 -11 10 -16 10 -6
0 -7 -4 -4 -10z"/>
<path d="M3180 6889 c0 -24 23 -21 28 4 2 10 -3 17 -12 17 -10 0 -16 -9 -16
-21z"/>
<path d="M6810 6875 c0 -10 7 -15 18 -13 21 4 19 22 -2 26 -10 2 -16 -3 -16
-13z"/>
<path d="M4880 6820 c-286 -61 -594 -278 -767 -542 -189 -290 -228 -619 -103
-885 43 -93 109 -125 180 -88 67 34 75 109 25 225 -37 85 -46 246 -21 355 57
243 277 493 561 638 377 192 694 14 824 -463 11 -41 27 -115 34 -163 12 -74
12 -87 1 -83 -18 7 -18 -4 1 -18 10 -8 21 -63 35 -181 52 -415 121 -625 291
-882 92 -137 293 -341 424 -430 120 -80 264 -153 304 -153 70 0 121 52 121
123 0 51 -30 80 -139 138 -250 130 -463 345 -595 598 -96 186 -125 301 -176
691 -47 365 -80 499 -166 673 -114 232 -288 389 -489 443 -91 24 -243 26 -345
4z m326 -104 c112 -30 233 -110 310 -204 47 -58 52 -70 30 -78 -8 -3 -47 28
-97 79 -164 165 -339 212 -571 153 -104 -26 -217 -77 -297 -131 -29 -20 -59
-34 -67 -31 -34 13 -10 40 84 96 110 65 230 108 372 134 41 7 181 -3 236 -18z
m444 -385 c13 -32 7 -51 -16 -51 -17 0 -37 47 -30 67 9 23 33 14 46 -16z"/>
<path d="M2904 6598 c-121 -128 -273 -289 -339 -358 -238 -248 -397 -420 -388
-421 4 -1 15 -2 23 -3 8 -2 25 -3 38 -4 29 -2 105 -73 126 -116 20 -42 21
-118 2 -154 -31 -59 -94 -102 -151 -102 l-36 0 57 -70 c32 -38 61 -70 65 -70
4 0 88 -78 186 -172 245 -237 670 -637 773 -728 46 -41 152 -137 235 -214 143
-132 365 -322 365 -312 0 7 -428 407 -539 505 -201 175 -1091 1020 -1091 1035
0 3 8 6 18 6 10 0 39 14 65 31 63 42 102 120 93 186 -11 85 -76 168 -151 193
l-35 12 177 186 c97 103 227 239 288 302 267 276 467 500 447 500 -5 0 -108
-105 -228 -232z"/>
<path d="M6887 6823 c-4 -3 -7 -12 -7 -20 0 -15 26 -18 34 -4 7 11 -18 33 -27
24z"/>
<path d="M6271 6775 c7 -20 54 -85 62 -85 15 0 6 18 -29 56 -20 21 -34 35 -33
29z"/>
<path d="M6944 6759 c-8 -14 11 -33 25 -25 11 7 4 36 -9 36 -5 0 -12 -5 -16
-11z"/>
<path d="M7015 6690 c-11 -17 5 -32 21 -19 7 6 11 15 8 20 -7 12 -21 11 -29
-1z"/>
<path d="M7074 6629 c-8 -14 18 -31 30 -19 9 9 0 30 -14 30 -5 0 -12 -5 -16
-11z"/>
<path d="M7150 6555 c0 -9 5 -15 11 -13 6 2 11 8 11 13 0 5 -5 11 -11 13 -6 2
-11 -4 -11 -13z"/>
<path d="M7336 6397 c203 -191 347 -324 417 -386 182 -161 739 -685 975 -916
119 -117 130 -130 110 -136 -198 -53 -211 -315 -20 -404 20 -10 39 -19 41 -21
2 -2 -99 -110 -225 -241 -452 -470 -682 -719 -672 -729 3 -2 93 87 199 199
323 338 684 720 717 758 l32 36 -39 7 c-52 8 -119 60 -148 116 -31 58 -26 125
12 180 29 42 95 80 138 80 15 0 27 4 27 8 0 10 -301 307 -565 557 -421 398
-1070 985 -1091 985 -4 0 37 -42 92 -93z"/>
<path d="M5010 6451 c0 -6 4 -13 10 -16 6 -3 7 1 4 9 -7 18 -14 21 -14 7z"/>
<path d="M5960 6030 c-9 -6 -10 -10 -3 -10 6 0 15 5 18 10 8 12 4 12 -15 0z"/>
<path d="M5228 5923 c7 -3 16 -2 19 1 4 3 -2 6 -13 5 -11 0 -14 -3 -6 -6z"/>
<path d="M2410 5882 c0 -9 36 -44 59 -57 18 -10 7 10 -22 43 -21 22 -37 29
-37 14z"/>
<path d="M2360 5875 c0 -10 93 -115 98 -111 6 6 -18 48 -42 74 -22 25 -56 47
-56 37z"/>
<path d="M2355 5796 c36 -35 65 -70 65 -79 0 -8 7 -20 15 -27 12 -10 13 -7 5
20 -14 49 -49 99 -88 125 -65 44 -64 26 3 -39z"/>
<path d="M3141 5791 c-9 -6 -2 -10 24 -13 32 -4 35 -3 19 9 -21 15 -24 16 -43
4z"/>
<path d="M3110 5725 c7 -9 15 -13 17 -11 7 7 -7 26 -19 26 -6 0 -6 -6 2 -15z"/>
<path d="M2416 5498 c-20 -35 -52 -74 -71 -87 -44 -30 -39 -38 10 -15 46 21
81 68 93 122 6 23 9 42 7 42 -1 0 -19 -28 -39 -62z"/>
<path d="M2637 5519 c-8 -28 -3 -34 11 -16 6 7 7 19 3 26 -6 9 -10 6 -14 -10z"/>
<path d="M2430 5420 c-25 -26 -52 -50 -60 -52 -8 -3 -12 -9 -8 -13 14 -15 80
31 105 73 33 55 19 52 -37 -8z"/>
<path d="M2710 5421 c0 -6 5 -13 10 -16 6 -3 10 1 10 9 0 9 -4 16 -10 16 -5 0
-10 -4 -10 -9z"/>
<path d="M2451 5356 c-12 -13 -18 -26 -13 -30 10 -6 52 29 52 44 0 17 -16 11
-39 -14z"/>
<path d="M6995 5270 c3 -5 8 -10 11 -10 2 0 4 5 4 10 0 6 -5 10 -11 10 -5 0
-7 -4 -4 -10z"/>
<path d="M8616 5034 c-27 -27 -17 -36 14 -14 17 12 30 23 30 26 0 10 -30 3
-44 -12z"/>
<path d="M4210 5030 c0 -5 5 -10 11 -10 5 0 7 5 4 10 -3 6 -8 10 -11 10 -2 0
-4 -4 -4 -10z"/>
<path d="M8680 5012 c-33 -16 -80 -73 -80 -96 0 -6 19 10 43 35 23 25 51 50
62 56 34 19 11 23 -25 5z"/>
<path d="M8699 4963 c-34 -29 -69 -94 -68 -128 0 -14 6 -8 21 20 25 48 63 91
103 116 l30 19 -27 0 c-14 0 -41 -12 -59 -27z"/>
<path d="M8640 4685 c0 -19 35 -84 58 -108 28 -30 81 -62 88 -54 3 2 -16 21
-41 41 -25 21 -54 55 -65 76 -18 35 -40 60 -40 45z"/>
<path d="M8630 4604 c1 -18 26 -52 58 -79 53 -45 49 -20 -7 37 -28 28 -51 48
-51 42z"/>
<path d="M8619 4532 c13 -25 40 -46 48 -38 7 7 -36 56 -49 56 -5 0 -4 -8 1
-18z"/>
<path d="M5115 4380 c3 -5 8 -10 11 -10 2 0 4 5 4 10 0 6 -5 10 -11 10 -5 0
-7 -4 -4 -10z"/>
<path d="M5712 4235 c0 -16 2 -22 5 -12 2 9 2 23 0 30 -3 6 -5 -1 -5 -18z"/>
<path d="M7126 4061 c-17 -18 -24 -31 -17 -35 6 -4 11 -19 11 -34 0 -15 7 -40
16 -57 8 -16 13 -37 11 -47 -8 -27 52 -43 95 -25 73 31 100 109 59 171 -26 39
-57 55 -107 56 -32 0 -46 -6 -68 -29z"/>
<path d="M3912 3826 c1 -10 8 -17 13 -17 15 1 12 24 -3 29 -9 3 -13 -2 -10
-12z"/>
<path d="M3980 3755 c0 -8 7 -15 15 -15 8 0 15 7 15 15 0 8 -7 15 -15 15 -8 0
-15 -7 -15 -15z"/>
<path d="M4042 3698 c6 -18 28 -21 28 -4 0 9 -7 16 -16 16 -9 0 -14 -5 -12
-12z"/>
<path d="M4115 3640 c-8 -13 4 -32 16 -25 12 8 12 35 0 35 -6 0 -13 -4 -16
-10z"/>
<path d="M4174 3579 c-10 -17 13 -36 27 -22 12 12 4 33 -11 33 -5 0 -12 -5
-16 -11z"/>
<path d="M4247 3514 c-8 -8 1 -24 14 -24 5 0 9 7 9 15 0 15 -12 20 -23 9z"/>
<path d="M7882 3498 c-7 -7 -12 -16 -12 -20 0 -12 28 -10 36 3 10 17 -10 31
-24 17z"/>
<path d="M6510 3429 c-22 -18 -22 -19 -3 -10 12 6 25 16 28 21 9 15 3 12 -25
-11z"/>
<path d="M7790 3400 c0 -11 7 -20 15 -20 8 0 15 9 15 20 0 11 -7 20 -15 20 -8
0 -15 -9 -15 -20z"/>
<path d="M4350 3401 c0 -16 339 -357 770 -774 587 -568 811 -777 834 -777 3 0
6 16 6 35 0 68 63 144 136 165 88 26 209 -49 237 -147 l13 -44 199 205 c148
153 202 203 211 195 9 -7 12 -5 10 8 -4 21 15 43 243 283 255 268 285 300 279
305 -6 6 -283 -268 -454 -451 -72 -76 -207 -220 -300 -320 l-169 -180 -22 42
c-39 73 -131 133 -206 134 -45 0 -103 -22 -135 -53 -29 -27 -62 -89 -62 -117
0 -11 -3 -20 -7 -20 -14 0 -896 844 -1093 1045 -175 178 -490 478 -490 466z"/>
<path d="M7067 3396 c-4 -10 -1 -13 8 -9 8 3 12 9 9 14 -7 12 -11 11 -17 -5z"/>
<path d="M7190 3350 c-9 -6 -10 -10 -3 -10 6 0 15 5 18 10 8 12 4 12 -15 0z"/>
<path d="M7714 3326 c-8 -22 3 -33 18 -18 9 9 9 15 0 24 -9 9 -13 7 -18 -6z"/>
<path d="M7720 3270 c0 -5 5 -10 11 -10 5 0 7 5 4 10 -3 6 -8 10 -11 10 -2 0
-4 -4 -4 -10z"/>
<path d="M7642 3249 c2 -6 8 -10 13 -10 5 0 11 4 13 10 2 6 -4 11 -13 11 -9 0
-15 -5 -13 -11z"/>
<path d="M7572 3179 c2 -6 8 -10 13 -10 5 0 11 4 13 10 2 6 -4 11 -13 11 -9 0
-15 -5 -13 -11z"/>
<path d="M6135 3140 c-3 -5 -1 -10 4 -10 6 0 11 5 11 10 0 6 -2 10 -4 10 -3 0
-8 -4 -11 -10z"/>
<path d="M7505 3111 c-7 -12 12 -24 25 -16 11 7 4 25 -10 25 -5 0 -11 -4 -15
-9z"/>
<path d="M6067 3097 c-3 -8 1 -14 8 -14 7 0 11 6 8 14 -3 7 -6 13 -8 13 -2 0
-5 -6 -8 -13z"/>
<path d="M7170 3040 c-8 -5 -10 -10 -5 -10 6 0 17 5 25 10 8 5 11 10 5 10 -5
0 -17 -5 -25 -10z"/>
<path d="M7424 3029 c-10 -17 13 -36 27 -22 12 12 4 33 -11 33 -5 0 -12 -5
-16 -11z"/>
<path d="M7344 2939 c-10 -17 13 -36 27 -22 12 12 4 33 -11 33 -5 0 -12 -5
-16 -11z"/>
<path d="M6090 2729 c0 -5 5 -7 10 -4 6 3 10 8 10 11 0 2 -4 4 -10 4 -5 0 -10
-5 -10 -11z"/>
<path d="M5985 2650 c-3 -5 -1 -10 4 -10 6 0 11 5 11 10 0 6 -2 10 -4 10 -3 0
-8 -4 -11 -10z"/>
<path d="M5852 2127 c-24 -25 -28 -37 -13 -37 5 0 19 14 31 30 25 35 13 40
-18 7z"/>
<path d="M5929 2127 c-35 -23 -73 -83 -62 -100 3 -5 10 -1 16 9 5 11 28 38 50
61 47 49 45 63 -4 30z"/>
<path d="M6362 2123 c15 -15 30 -24 34 -21 8 8 -32 48 -48 48 -7 0 0 -12 14
-27z"/>
<path d="M6270 2137 c0 -2 25 -25 56 -51 56 -49 79 -56 51 -16 -24 34 -107 86
-107 67z"/>
<path d="M6025 2118 c-65 -23 -125 -87 -125 -134 0 -11 10 -3 29 22 33 46 87
94 106 94 7 0 18 7 25 15 14 17 7 18 -35 3z"/>
<path d="M6241 2090 c31 -16 73 -48 92 -72 46 -55 58 -44 15 13 -34 45 -106
89 -143 89 -12 -1 1 -12 36 -30z"/>
<path d="M7773 8626 c-30 -32 -61 -56 -72 -56 -36 0 -161 -166 -161 -213 0 -8
-80 -106 -177 -219 -98 -112 -221 -256 -273 -318 -238 -286 -390 -470 -390
-473 0 -8 564 -542 574 -544 6 -1 52 51 103 115 50 64 151 189 224 277 73 88
220 272 327 409 137 174 204 252 226 261 54 23 166 158 166 201 0 14 18 47 40
75 22 28 40 61 40 74 0 84 -420 442 -541 461 -31 5 -39 1 -86 -50z m-453
-1040 c36 -27 117 -95 180 -151 63 -55 123 -107 135 -117 11 -9 17 -19 14 -22
-3 -3 -57 38 -120 90 -63 53 -162 136 -221 186 -148 123 -140 133 12 14z m45
-92 c109 -88 261 -224 258 -232 -5 -17 -24 -7 -88 49 -51 45 -340 281 -374
305 -1 2 0 8 4 14 8 12 62 -24 200 -136z"/>
<path d="M4106 8117 c3 -10 9 -15 12 -12 3 3 0 11 -7 18 -10 9 -11 8 -5 -6z"/>
<path d="M3085 4430 c21 -22 41 -40 44 -40 3 0 -13 18 -34 40 -21 22 -41 40
-44 40 -3 0 13 -18 34 -40z"/>
<path d="M3245 4280 c10 -11 20 -20 23 -20 3 0 -3 9 -13 20 -10 11 -20 20 -23
20 -3 0 3 -9 13 -20z"/>
<path d="M2729 3508 c-282 -343 -527 -642 -543 -666 -29 -41 -31 -49 -31 -135
0 -80 4 -102 32 -169 69 -167 176 -312 378 -513 348 -347 732 -565 994 -565
115 0 167 24 242 111 31 35 246 296 479 579 232 283 431 524 441 535 18 21 18
22 -50 89 l-68 68 -233 -284 c-129 -155 -235 -285 -237 -287 -11 -14 -263 104
-390 183 -190 117 -385 290 -578 510 -181 207 -258 304 -252 318 3 7 123 155
266 328 144 173 260 320 259 325 -2 6 -46 52 -99 103 l-96 93 -514 -623z"/>
<path d="M8675 4090 c3 -5 8 -10 11 -10 2 0 4 5 4 10 0 6 -5 10 -11 10 -5 0
-7 -4 -4 -10z"/>
<path d="M4037 3495 c10 -13 22 -25 27 -25 5 0 -1 11 -14 25 -30 32 -36 32
-13 0z"/>
<path d="M7760 3185 c0 -8 7 -15 16 -15 14 0 14 3 4 15 -7 8 -14 15 -16 15 -2
0 -4 -7 -4 -15z"/>
<path d="M7780 3123 c0 -4 5 -15 10 -23 8 -13 10 -13 10 2 0 9 -4 20 -10 23
-5 3 -10 3 -10 -2z"/>
</g>
</svg>
